<?xml version="1.0" encoding="utf-8"?>
<!-- Generator: Adobe Illustrator 23.0.3, SVG Export Plug-In . SVG Version: 6.00 Build 0)  -->
<svg version="1.1" id="圖層_1" xmlns="http://www.w3.org/2000/svg" xmlns:xlink="http://www.w3.org/1999/xlink" x="0px" y="0px"
	 viewBox="0 0 1563 395" style="enable-background:new 0 0 1563 395;" xml:space="preserve">
<style type="text/css">
	.st0{fill:none;stroke:#201512;stroke-width:3;stroke-miterlimit:10;}
	.st1{fill:#201512;}
</style>
<g>
	<polyline class="st0" points="1549.2,380.49 1289.32,380.49 1029.44,380.49 1240.36,87.89 1263.22,100.66 1323.53,15.72 	"/>
	<path class="st1" d="M1298.01,307.17c-4.28-1.18-7.27-2.01-10.16-3.64c-1.15,0.1-2.05,0.22-2.67,0.16c-2.67-0.28-5.72-1.28-8-3.54
		c-2.29-2.26-3.43-5.2-3.43-8.81c0-3.71,1.16-6.67,3.47-8.88c2.31-2.21,5.4-3.32,9.26-3.32c3.87,0,6.97,1.11,9.27,3.33
		s3.46,5.19,3.46,8.92c0,6.12-3.38,9.69-7.88,11.24c3.13,1.17,4.43,1.35,7.79,1.85L1298.01,307.17z M1286.37,301.08
		c2.78,0,4.94-0.85,6.46-2.56c1.52-1.71,2.28-4.12,2.28-7.24c0-3.03-0.76-5.39-2.28-7.11c-1.52-1.71-3.64-2.57-6.35-2.57
		c-2.71,0-4.83,0.86-6.35,2.57c-1.52,1.71-2.28,4.09-2.28,7.14c0,3.04,0.75,5.42,2.26,7.16
		C1281.62,300.21,1283.7,301.08,1286.37,301.08z"/>
	<path class="st1" d="M1305.11,282.54h3.41v12.89c0,2.14,0.59,3.7,1.76,4.67c1.17,0.97,3.04,1.46,5.59,1.46
		c2.5,0,4.94-0.1,5.98-1.02c1.05-0.92,1.57-2.47,1.57-4.66v-13.35h3.92v13.3c0,2.91-0.88,5.02-2.65,6.35
		c-1.77,1.32-4.18,2.19-8.05,2.19c-3.94,0-6.84-0.69-8.72-2.06c-1.88-1.37-2.81-3.49-2.81-6.36V282.54z"/>
	<path class="st1" d="M1333.67,303.56v-21.01h19.61v2.23h-16.48v6.74l11.29,0.02v2.2l-11.29-0.02v7.35h16.48v2.49H1333.67z"/>
	<path class="st1" d="M1403.35,307.17c-4.28-1.13-7.27-1.93-10.16-3.49c-1.15,0.1-2.05,0.21-2.67,0.15c-2.67-0.27-5.72-1.22-8-3.39
		c-2.29-2.17-3.43-4.99-3.43-8.45c0-3.56,1.16-6.39,3.47-8.52c2.31-2.12,5.4-3.19,9.26-3.19c3.87,0,6.97,1.07,9.27,3.19
		s3.46,4.98,3.46,8.55c0,5.87-3.38,9.29-7.88,10.77c3.13,1.12,4.43,1.29,7.79,1.78L1403.35,307.17z M1391.71,301.33
		c2.78,0,4.94-0.82,6.46-2.46c1.52-1.64,2.28-3.95,2.28-6.94c0-2.9-0.76-5.17-2.28-6.82c-1.52-1.64-3.64-2.46-6.35-2.46
		c-2.71,0-4.83,0.82-6.35,2.46c-1.52,1.64-2.28,3.92-2.28,6.85c0,2.91,0.75,5.2,2.26,6.87
		C1386.96,300.49,1389.05,301.33,1391.71,301.33z"/>
	<path class="st1" d="M1408.73,282.54h3.41v12.89c0,2.14,0.59,3.7,1.76,4.67c1.17,0.97,3.04,1.46,5.59,1.46
		c2.5,0,4.94-0.1,5.98-1.02c1.05-0.92,1.57-2.47,1.57-4.66v-13.35h3.92v13.3c0,2.91-0.88,5.02-2.65,6.35
		c-1.77,1.32-4.18,2.19-8.05,2.19c-3.94,0-6.84-0.69-8.72-2.06c-1.88-1.37-2.81-3.49-2.81-6.36V282.54z"/>
	<path class="st1" d="M1437.19,303.55v-21.01h19.61v2.23h-16.48v6.74l11.29,0.02v2.2l-11.29-0.02v7.35h16.48v2.49H1437.19z"/>
	<path class="st1" d="M1399.62,342.67v-20.7h19.61v2.85h-16.48v5.99l11.29,0.02l0.12,2.65l-11.29-0.02l-0.12,6.76h16.48v2.45
		H1399.62z"/>
	<path class="st1" d="M1461.61,342.83v-20.86h19.61l-0.01,2.85h-16.48l0.01,6.05l11.29,0.02v2.18l-11.29-0.02v7.3h17.06v2.47
		H1461.61z"/>
	<path class="st1" d="M1358.96,303.82v-21.55h3.38v18.33h14.9v3.22H1358.96z"/>
	<path class="st1" d="M1238.48,349.85v-1.29h27.15v1.29H1238.48z"/>
	<path class="st1" d="M1264.73,343.1v-21.24h12.07c2.78,0,6.24,0.44,7.55,1.51c1.13,0.91,2.1,2.89,2.1,4.7
		c0,2.44-1.22,5.09-2.81,5.98c-1.78,0.99-11.38,0.66-14.33,0.66h-1.45v8.39H1264.73z M1267.82,331.94h9.12
		c1.94,0,3.75-0.02,4.81-0.78c1.06-0.76,1.28-1.5,1.28-2.88c0-1.17-0.42-2-1.25-2.5c-0.83-0.5-2.22-0.75-4.16-0.75h-9.81V331.94z"/>
	<path class="st1" d="M1308.23,343.1l-2.5-4.84h-12.25l-2.39,4.84h-4.2l10.8-21.24h3.83l10.63,21.24H1308.23z M1304.6,334.74
		l-4.64-9.43l-5.37,9.43H1304.6z"/>
	<path class="st1" d="M1322.18,343.1v-17.79h-9.22v-3.44h22.12v3.44h-9.22v17.79H1322.18z"/>
	<path class="st1" d="M1338.62,343.21v-21.87h3.69v21.87H1338.62z"/>
	<path class="st1" d="M1424.66,343.32v-21.35h14.62c2.63,0,3.75,0.44,5.15,1.32c1.4,0.88,2.09,3.31,2.09,4.98
		c0,2.76-1.03,5.51-4.73,6.67l5.28,8.38h-4.15l-5.39-8.4h-9.66v8.4H1424.66z M1427.87,331.72h8.38c4.9,0,7.2-0.55,7.2-3.45
		c0-2.14-1.9-3.45-6.01-3.45h-9.57V331.72z"/>
	<path class="st1" d="M1451.65,342.69v-21.05h3.31v21.05H1451.65z"/>
	<g>
		<path class="st1" d="M1471.83,300.96c4.11-0.04,7.5-1.36,7.4-3.38c-0.09-1.99-1.53-2.77-4.3-3.1c-1.27-0.12-3.93-0.34-5.34-0.29
			c-2.11,0.06-4.79-1.02-6.21-2.11c-1.46-1.13-2.19-2.49-2.19-4.1c0-1.94,0.92-3.5,2.76-4.68c1.78-1.18,4.17-1.51,7.44-1.53
			c3.93,0.06,7.11,1.54,10.02,3.01l-2.19,2.54c-1.99-1.2-5.08-2.41-7.93-2.45c-1.48,0-3.89,0.19-4.82,0.65
			c-1.04,0.52-1.79,1.41-1.82,2.48c0,0.64,0.35,1.22,1.06,1.73c0.71,0.53,3.21,0.94,4.77,1.14c0.87,0.1,2.58,0.3,4.08,0.43
			c2.97,0.28,4.64,0.4,6.06,1.6c1.4,1.19,1.85,2.75,1.85,4.32c-0.16,4.24-3.12,7.07-10.37,7.13c-4.69,0-8.48-1.18-11.62-3.54
			l1.68-2.57C1464.67,299.68,1468.36,300.94,1471.83,300.96z"/>
	</g>
	<g>
		<path class="st1" d="M1496.23,340.4c4.11-0.04,7.5-1.36,7.4-3.38c-0.09-1.99-1.53-2.77-4.3-3.1c-1.27-0.12-3.93-0.34-5.34-0.29
			c-2.11,0.06-4.79-1.02-6.21-2.11c-1.46-1.13-2.19-2.49-2.19-4.1c0-1.94,0.92-3.5,2.76-4.68c1.78-1.18,4.17-1.51,7.44-1.53
			c3.93,0.06,7.11,1.54,10.02,3.01l-2.19,2.54c-1.99-1.2-5.08-2.41-7.93-2.45c-1.48,0-3.89,0.19-4.82,0.65
			c-1.04,0.52-1.79,1.41-1.82,2.48c0,0.64,0.35,1.22,1.06,1.73c0.71,0.53,3.21,0.94,4.77,1.14c0.87,0.1,2.58,0.3,4.08,0.43
			c2.97,0.28,4.64,0.4,6.06,1.6c1.4,1.19,1.85,2.75,1.85,4.32c-0.16,4.24-3.12,7.07-10.37,7.13c-4.69,0-8.48-1.18-11.62-3.54
			l1.68-2.57C1489.07,339.12,1492.75,340.38,1496.23,340.4z"/>
	</g>
	<g>
		<path class="st1" d="M1383.54,340.4c4.11-0.04,7.5-1.36,7.4-3.38c-0.09-1.99-1.53-2.77-4.3-3.1c-1.27-0.12-3.93-0.34-5.34-0.29
			c-2.11,0.06-4.79-1.02-6.21-2.11c-1.46-1.13-2.19-2.49-2.19-4.1c0-1.94,0.92-3.5,2.76-4.68c1.78-1.18,4.17-1.51,7.44-1.53
			c3.93,0.06,7.11,1.54,10.02,3.01l-2.19,2.54c-1.99-1.2-5.08-2.41-7.93-2.45c-1.48,0-3.89,0.19-4.82,0.65
			c-1.04,0.52-1.79,1.41-1.82,2.48c0,0.64,0.35,1.22,1.06,1.73c0.71,0.53,3.21,0.94,4.77,1.14c0.87,0.1,2.58,0.3,4.08,0.43
			c2.97,0.28,4.64,0.4,6.06,1.6c1.4,1.19,1.85,2.75,1.85,4.32c-0.16,4.24-3.12,7.07-10.37,7.13c-4.69,0-8.48-1.18-11.62-3.54
			l1.68-2.57C1376.39,339.12,1380.07,340.38,1383.54,340.4z"/>
	</g>
	<g>
		<path class="st1" d="M1357.61,340.4c4.11-0.04,7.5-1.36,7.4-3.38c-0.09-1.99-1.53-2.77-4.3-3.1c-1.27-0.12-3.93-0.34-5.34-0.29
			c-2.11,0.06-4.79-1.02-6.21-2.11c-1.46-1.13-2.19-2.49-2.19-4.1c0-1.94,0.92-3.5,2.76-4.68c1.78-1.18,4.17-1.51,7.44-1.53
			c3.93,0.06,7.11,1.54,10.02,3.01l-2.19,2.54c-1.99-1.2-5.08-2.41-7.93-2.45c-1.48,0-3.89,0.19-4.82,0.65
			c-1.04,0.52-1.79,1.41-1.82,2.48c0,0.64,0.35,1.22,1.06,1.73c0.71,0.53,3.21,0.94,4.77,1.14c0.87,0.1,2.58,0.3,4.08,0.43
			c2.97,0.28,4.64,0.4,6.06,1.6c1.4,1.19,1.85,2.75,1.85,4.32c-0.16,4.24-3.12,7.07-10.37,7.13c-4.69,0-8.48-1.18-11.62-3.54
			l1.68-2.57C1350.45,339.12,1354.13,340.38,1357.61,340.4z"/>
	</g>
	<polygon class="st1" points="1294.6,319.88 1297.41,319.88 1299.6,317.54 1301.81,319.88 1304.6,319.88 1300.78,315.29 
		1298.53,315.29 	"/>
</g>
<line class="st0" x1="17.5" y1="380.5" x2="1067.5" y2="380.5"/>
</svg>
