<svg xmlns="http://www.w3.org/2000/svg" viewBox="0 0 248 248"><defs><style>.a{fill:none;stroke:#201512;stroke-miterlimit:10;stroke-width:0.25px;}.b{fill:#201512;}</style></defs><title>logo</title><polyline class="a" points="216 188.5 123.02 188.5 30.04 188.5 105.51 83.23 113.68 87.82 135.26 57.26"/><path class="b" d="M126.15,162.12a15.3,15.3,0,0,1-3.66-1.31,6.22,6.22,0,0,1-1,.06,4.83,4.83,0,0,1-2.88-1.27,4.3,4.3,0,0,1-1.23-3.17,4.2,4.2,0,0,1,1.25-3.2,5.23,5.23,0,0,1,6.67,0,4.25,4.25,0,0,1,1.24,3.21,4,4,0,0,1-2.84,4,10.68,10.68,0,0,0,2.81.67ZM122,159.93a3,3,0,0,0,2.32-.92,3.8,3.8,0,0,0,.82-2.61,3.67,3.67,0,0,0-.82-2.55,3.26,3.26,0,0,0-4.56,0,3.7,3.7,0,0,0-.82,2.56,3.8,3.8,0,0,0,.81,2.58A2.8,2.8,0,0,0,122,159.93Z"/><path class="b" d="M128.7,153.26h1.23v4.64a2.07,2.07,0,0,0,.63,1.68,3.15,3.15,0,0,0,2,.52,3.84,3.84,0,0,0,2.15-.36,2.13,2.13,0,0,0,.56-1.68v-4.8h1.41v4.79a2.66,2.66,0,0,1-.95,2.28,4.59,4.59,0,0,1-2.9.79,5.35,5.35,0,0,1-3.13-.74,2.65,2.65,0,0,1-1-2.29Z"/><path class="b" d="M139,160.82v-7.56H146v.8h-5.93v2.43h4.06v.79h-4.06v2.65H146v.89Z"/><path class="b" d="M164.05,162.12a16.55,16.55,0,0,1-3.66-1.25,7.45,7.45,0,0,1-1,0,4.94,4.94,0,0,1-2.88-1.22,4.38,4.38,0,0,1,0-6.11,5.43,5.43,0,0,1,6.67,0,4,4,0,0,1,1.24,3.07,3.85,3.85,0,0,1-2.83,3.88,10.87,10.87,0,0,0,2.8.64Zm-4.19-2.1a3,3,0,0,0,2.32-.88,3.54,3.54,0,0,0,.83-2.5,3.49,3.49,0,0,0-.83-2.46,3.39,3.39,0,0,0-4.56,0,3.51,3.51,0,0,0-.82,2.47,3.55,3.55,0,0,0,.81,2.47A2.87,2.87,0,0,0,159.86,160Z"/><path class="b" d="M166,153.26h1.22v4.64a2,2,0,0,0,.64,1.68,3.12,3.12,0,0,0,2,.52,3.82,3.82,0,0,0,2.15-.36,2.13,2.13,0,0,0,.57-1.68v-4.8H174v4.79a2.66,2.66,0,0,1-1,2.28,4.57,4.57,0,0,1-2.9.79,5.35,5.35,0,0,1-3.13-.74,2.65,2.65,0,0,1-1-2.29Z"/><path class="b" d="M176.22,160.82v-7.56h7.06v.8h-5.93v2.43h4.06v.8h-4.06v2.65h5.93v.89Z"/><path class="b" d="M162.71,174.89v-7.44h7v1h-5.93v2.16h4.07l0,1h-4.06l0,2.43h5.93v.88Z"/><path class="b" d="M185,175v-7.5h7.06v1h-5.93v2.18h4.06v.78h-4.06v2.62h6.14V175Z"/><path class="b" d="M148.08,160.92v-7.76h1.21v6.6h5.36v1.16Z"/><path class="b" d="M104.73,177.48V177h9.77v.47Z"/><path class="b" d="M114.17,175.05v-7.64h4.35a5.36,5.36,0,0,1,2.71.54,2.36,2.36,0,0,1,.76,1.69,2.61,2.61,0,0,1-1,2.15c-.64.36-4.1.24-5.16.24h-.52v3Zm1.12-4h3.28a3.15,3.15,0,0,0,1.73-.28,1.05,1.05,0,0,0,.46-1,1,1,0,0,0-.45-.9,3.05,3.05,0,0,0-1.49-.27h-3.53Z"/><path class="b" d="M129.82,175.05l-.9-1.74h-4.4l-.86,1.74h-1.51l3.88-7.64h1.38l3.83,7.64Zm-1.3-3-1.67-3.39L124.92,172Z"/><path class="b" d="M134.84,175.05v-6.4h-3.31v-1.24h8v1.24h-3.32v6.4Z"/><path class="b" d="M140.76,175.09v-7.87h1.33v7.87Z"/><path class="b" d="M171.72,175.13v-7.68H177a3,3,0,0,1,1.85.47,2.53,2.53,0,0,1-1,4.19l1.9,3h-1.5l-1.94-3h-3.47v3Zm1.15-4.17h3c1.77,0,2.59-.2,2.59-1.25,0-.76-.68-1.24-2.16-1.24h-3.44Z"/><path class="b" d="M181.43,174.9v-7.57h1.19v7.57Z"/><path class="b" d="M188.69,159.89c1.47,0,2.69-.49,2.66-1.22s-.55-1-1.55-1.11c-.46-.05-1.41-.12-1.92-.11a4,4,0,0,1-2.23-.76,1.8,1.8,0,0,1-.79-1.48,1.94,1.94,0,0,1,1-1.68,4.92,4.92,0,0,1,2.68-.55,8,8,0,0,1,3.6,1.08l-.79.91a6.22,6.22,0,0,0-2.85-.88,5.3,5.3,0,0,0-1.74.24,1.07,1.07,0,0,0-.65.89.78.78,0,0,0,.38.62,5.56,5.56,0,0,0,1.72.41l1.47.16a3.68,3.68,0,0,1,2.18.57,2,2,0,0,1,.67,1.56c-.06,1.52-1.13,2.54-3.73,2.56a6.74,6.74,0,0,1-4.19-1.27l.61-.92A7.54,7.54,0,0,0,188.69,159.89Z"/><path class="b" d="M197.46,174.08c1.48,0,2.7-.49,2.67-1.22s-.55-1-1.55-1.11a17.09,17.09,0,0,0-1.92-.11,4.06,4.06,0,0,1-2.24-.76,1.83,1.83,0,0,1-.78-1.48,1.93,1.93,0,0,1,1-1.68,4.83,4.83,0,0,1,2.68-.55,8.05,8.05,0,0,1,3.6,1.08l-.79.91a6.25,6.25,0,0,0-2.85-.88,5.3,5.3,0,0,0-1.74.24,1.05,1.05,0,0,0-.65.89.79.79,0,0,0,.38.62,5.56,5.56,0,0,0,1.72.41l1.47.16a3.7,3.7,0,0,1,2.18.57,2,2,0,0,1,.66,1.56c0,1.52-1.12,2.54-3.73,2.56a6.71,6.71,0,0,1-4.18-1.27l.6-.93A7.49,7.49,0,0,0,197.46,174.08Z"/><path class="b" d="M156.92,174.08c1.48,0,2.7-.49,2.67-1.22s-.55-1-1.55-1.11a17.09,17.09,0,0,0-1.92-.11,4.06,4.06,0,0,1-2.24-.76,1.83,1.83,0,0,1-.78-1.48,1.93,1.93,0,0,1,1-1.68,4.81,4.81,0,0,1,2.67-.55,8.06,8.06,0,0,1,3.61,1.08l-.79.91a6.25,6.25,0,0,0-2.85-.88,5.22,5.22,0,0,0-1.74.24,1.05,1.05,0,0,0-.65.89.77.77,0,0,0,.38.62,5.42,5.42,0,0,0,1.72.41l1.47.16a3.7,3.7,0,0,1,2.18.57,2,2,0,0,1,.66,1.56c-.06,1.52-1.12,2.54-3.73,2.56a6.71,6.71,0,0,1-4.18-1.27l.6-.93A7.46,7.46,0,0,0,156.92,174.08Z"/><path class="b" d="M147.59,174.08c1.48,0,2.7-.49,2.66-1.22s-.54-1-1.54-1.11a17.14,17.14,0,0,0-1.93-.11,4.06,4.06,0,0,1-2.23-.76,1.84,1.84,0,0,1-.79-1.48,1.93,1.93,0,0,1,1-1.68,4.85,4.85,0,0,1,2.68-.55,8.06,8.06,0,0,1,3.61,1.08l-.79.91a6.26,6.26,0,0,0-2.86-.88,5.2,5.2,0,0,0-1.73.24,1.08,1.08,0,0,0-.66.89.78.78,0,0,0,.39.62,5.42,5.42,0,0,0,1.71.41l1.47.16a3.68,3.68,0,0,1,2.18.57,1.93,1.93,0,0,1,.67,1.56c-.06,1.52-1.12,2.54-3.73,2.56a6.69,6.69,0,0,1-4.18-1.27l.6-.93A7.46,7.46,0,0,0,147.59,174.08Z"/><polygon class="b" points="124.92 166.69 125.93 166.69 126.72 165.85 127.52 166.69 128.52 166.69 127.14 165.04 126.34 165.04 124.92 166.69"/></svg>