<svg xmlns="http://www.w3.org/2000/svg" viewBox="0 0 248 178.99"><defs><style>.a{fill:#201512;}.b{fill:none;stroke:#201512;stroke-miterlimit:10;stroke-width:2px;}</style></defs><title>Logo</title><path class="a" d="M127.86,141.12a20.26,20.26,0,0,1-4.8-1.73,8.19,8.19,0,0,1-1.26.08,6.29,6.29,0,0,1-3.79-1.68,6.19,6.19,0,0,1,0-8.37,6.89,6.89,0,0,1,8.77,0,5.59,5.59,0,0,1,1.63,4.22A5.25,5.25,0,0,1,124.7,139a14.31,14.31,0,0,0,3.69.88Zm-5.5-2.89a3.87,3.87,0,0,0,3-1.21,5,5,0,0,0,1.08-3.42,4.91,4.91,0,0,0-1.08-3.37,4.32,4.32,0,0,0-6,0,5.87,5.87,0,0,0,0,6.77A3.71,3.71,0,0,0,122.36,138.23Z"/><path class="a" d="M131.22,129.47h1.62v6.09a2.69,2.69,0,0,0,.83,2.21,4.12,4.12,0,0,0,2.65.69,5,5,0,0,0,2.83-.48,2.82,2.82,0,0,0,.74-2.2v-6.31h1.85v6.29a3.51,3.51,0,0,1-1.25,3,6,6,0,0,1-3.81,1,7,7,0,0,1-4.13-1,3.5,3.5,0,0,1-1.33-3Z"/><path class="a" d="M144.74,139.41v-9.94H154v1.05h-7.79v3.19h5.34v1h-5.34v3.48H154v1.18Z"/><path class="a" d="M177.7,141.12a21.3,21.3,0,0,1-4.81-1.65,9.35,9.35,0,0,1-1.26.07,6.45,6.45,0,0,1-3.79-1.61,5.76,5.76,0,0,1,0-8,7.14,7.14,0,0,1,8.77,0,5.23,5.23,0,0,1,1.63,4,5.06,5.06,0,0,1-3.73,5.1,15.12,15.12,0,0,0,3.69.84Zm-5.51-2.77a4,4,0,0,0,3.05-1.16,4.64,4.64,0,0,0,1.08-3.29,4.56,4.56,0,0,0-1.08-3.22,4.46,4.46,0,0,0-6,0,4.6,4.6,0,0,0-1.08,3.24,4.68,4.68,0,0,0,1.07,3.25A3.78,3.78,0,0,0,172.19,138.35Z"/><path class="a" d="M180.24,129.47h1.61v6.09a2.69,2.69,0,0,0,.84,2.21,4.09,4.09,0,0,0,2.64.69c1.19,0,2.34,0,2.83-.48a2.78,2.78,0,0,0,.75-2.2v-6.31h1.85v6.29a3.51,3.51,0,0,1-1.25,3,6,6,0,0,1-3.81,1,7,7,0,0,1-4.13-1,3.5,3.5,0,0,1-1.33-3Z"/><path class="a" d="M193.7,139.4v-9.94H203v1.06h-7.79v3.19h5.34v1h-5.34v3.48H203v1.17Z"/><path class="a" d="M175.93,157.91v-9.79h9.28v1.35h-7.8v2.83h5.34l.06,1.25h-5.34l-.06,3.2h7.8v1.16Z"/><path class="a" d="M205.25,158v-9.86h9.28v1.35h-7.8v2.86h5.34v1h-5.34v3.46h8.07V158Z"/><path class="a" d="M156.69,139.53V129.34h1.6V138h7.05v1.52Z"/><path class="a" d="M99.7,161.31v-.61h12.85v.61Z"/><path class="a" d="M112.12,158.11v-10h5.71a7.09,7.09,0,0,1,3.57.71,3.1,3.1,0,0,1,1,2.23,3.43,3.43,0,0,1-1.33,2.82c-.85.47-5.39.32-6.78.32h-.69v4Zm1.46-5.28h4.32a4.3,4.3,0,0,0,2.27-.36,1.4,1.4,0,0,0,.61-1.37,1.28,1.28,0,0,0-.59-1.18,4,4,0,0,0-2-.36h-4.64Z"/><path class="a" d="M132.7,158.11l-1.19-2.29h-5.79l-1.13,2.29h-2l5.11-10h1.81l5,10Zm-1.72-4-2.19-4.46-2.54,4.46Z"/><path class="a" d="M139.3,158.11V149.7h-4.36v-1.63H145.4v1.63H141v8.41Z"/><path class="a" d="M147.08,158.16V147.82h1.74v10.34Z"/><path class="a" d="M187.78,158.22v-10.1h6.91a3.92,3.92,0,0,1,2.44.62,3.33,3.33,0,0,1-1.25,5.52l2.5,4h-2l-2.55-4h-4.57v4Zm1.51-5.49h4c2.31,0,3.4-.26,3.4-1.63,0-1-.9-1.63-2.84-1.63h-4.53Z"/><path class="a" d="M200.54,157.92V148h1.57v10Z"/><path class="a" d="M210.09,138.18c1.94,0,3.54-.65,3.5-1.6s-.72-1.31-2-1.47c-.6-.05-1.86-.15-2.52-.13a5.39,5.39,0,0,1-2.94-1,2.39,2.39,0,0,1-1-1.95,2.53,2.53,0,0,1,1.3-2.21,6.35,6.35,0,0,1,3.52-.73,10.6,10.6,0,0,1,4.74,1.43l-1,1.2a8,8,0,0,0-3.75-1.16,7,7,0,0,0-2.28.31,1.4,1.4,0,0,0-.86,1.17,1,1,0,0,0,.5.82,7.48,7.48,0,0,0,2.26.54c.41,0,1.22.14,1.93.2,1.4.14,2.2.19,2.87.76a2.55,2.55,0,0,1,.87,2c-.07,2-1.47,3.34-4.9,3.37a8.8,8.8,0,0,1-5.5-1.68l.79-1.21A10,10,0,0,0,210.09,138.18Z"/><path class="a" d="M221.63,156.83c1.94,0,3.55-.64,3.5-1.59s-.72-1.31-2-1.47c-.61-.06-1.86-.16-2.53-.14a5.24,5.24,0,0,1-2.94-1,2.37,2.37,0,0,1-1-1.94,2.55,2.55,0,0,1,1.3-2.22,6.44,6.44,0,0,1,3.52-.72,10.73,10.73,0,0,1,4.74,1.42l-1,1.2a7.93,7.93,0,0,0-3.75-1.15,7,7,0,0,0-2.28.3,1.41,1.41,0,0,0-.86,1.17,1,1,0,0,0,.5.82,7.45,7.45,0,0,0,2.26.55c.41,0,1.22.14,1.93.2,1.4.13,2.2.19,2.87.76a2.54,2.54,0,0,1,.87,2c-.07,2-1.47,3.34-4.9,3.37a8.86,8.86,0,0,1-5.5-1.67l.79-1.22A9.85,9.85,0,0,0,221.63,156.83Z"/><path class="a" d="M168.33,156.83c1.94,0,3.54-.64,3.5-1.59s-.72-1.31-2-1.47c-.6-.06-1.86-.16-2.52-.14a5.24,5.24,0,0,1-2.94-1,2.38,2.38,0,0,1-1-1.94,2.56,2.56,0,0,1,1.31-2.22,6.44,6.44,0,0,1,3.52-.72,10.73,10.73,0,0,1,4.74,1.42l-1,1.2a8,8,0,0,0-3.75-1.15,7,7,0,0,0-2.28.3,1.41,1.41,0,0,0-.86,1.17,1,1,0,0,0,.5.82,7.38,7.38,0,0,0,2.26.55c.41,0,1.22.14,1.93.2,1.4.13,2.19.19,2.86.76a2.52,2.52,0,0,1,.88,2c-.08,2-1.47,3.34-4.9,3.37a8.86,8.86,0,0,1-5.5-1.67l.79-1.22A9.82,9.82,0,0,0,168.33,156.83Z"/><path class="a" d="M156.06,156.83c1.94,0,3.54-.64,3.5-1.59s-.72-1.31-2-1.47c-.6-.06-1.86-.16-2.52-.14a5.24,5.24,0,0,1-2.94-1,2.38,2.38,0,0,1-1-1.94,2.56,2.56,0,0,1,1.31-2.22,6.44,6.44,0,0,1,3.52-.72,10.73,10.73,0,0,1,4.74,1.42l-1,1.2a8,8,0,0,0-3.75-1.15,7,7,0,0,0-2.28.3,1.41,1.41,0,0,0-.86,1.17,1,1,0,0,0,.5.82,7.38,7.38,0,0,0,2.26.55c.41,0,1.22.14,1.93.2,1.4.13,2.19.19,2.86.76a2.52,2.52,0,0,1,.88,2c-.08,2-1.47,3.34-4.9,3.37a8.86,8.86,0,0,1-5.5-1.67l.79-1.22A9.82,9.82,0,0,0,156.06,156.83Z"/><polygon class="a" points="126.25 147.13 127.58 147.13 128.62 146.02 129.66 147.13 130.98 147.13 129.18 144.96 128.11 144.96 126.25 147.13"/><polyline class="b" points="246 175.8 123.75 175.8 1.51 175.8 100.72 37.39 111.48 43.43 139.84 3.25"/></svg>